<?xml version="1.0" encoding="UTF-8" standalone="no"?>
<!-- Created with Inkscape (http://www.inkscape.org/) -->

<svg
   width="1.058334mm"
   height="1.0583324mm"
   viewBox="0 0 1.058334 1.0583324"
   version="1.1"
   id="svg1"
   xml:space="preserve"
   inkscape:export-filename="l-mouth_closed.jpg.jpg"
   inkscape:export-xdpi="96"
   inkscape:export-ydpi="96"
   inkscape:version="1.4 (e7c3feb100, 2024-10-09)"
   sodipodi:docname="obstacle.svg"
   xmlns:inkscape="http://www.inkscape.org/namespaces/inkscape"
   xmlns:sodipodi="http://sodipodi.sourceforge.net/DTD/sodipodi-0.dtd"
   xmlns="http://www.w3.org/2000/svg"
   xmlns:svg="http://www.w3.org/2000/svg"><sodipodi:namedview
     id="namedview1"
     pagecolor="#ffffff"
     bordercolor="#000000"
     borderopacity="0.25"
     inkscape:showpageshadow="2"
     inkscape:pageopacity="0.0"
     inkscape:pagecheckerboard="0"
     inkscape:deskcolor="#d1d1d1"
     inkscape:document-units="mm"
     inkscape:zoom="85.680757"
     inkscape:cx="4.2366572"
     inkscape:cy="2.0307944"
     inkscape:window-width="1920"
     inkscape:window-height="1010"
     inkscape:window-x="0"
     inkscape:window-y="42"
     inkscape:window-maximized="1"
     inkscape:current-layer="layer1" /><defs
     id="defs1" /><g
     inkscape:label="Layer 1"
     inkscape:groupmode="layer"
     id="layer1"
     transform="translate(-61.256245,-46.40625)"><rect
       style="fill:#8fbc47;fill-opacity:1;stroke-width:0.0175243;stroke-linejoin:round"
       id="rect1-6-2-3-9"
       width="0.26458326"
       height="0.26528743"
       x="-46.935417"
       y="-62.04929"
       transform="matrix(0,-1,-1,0,0,0)" /><rect
       style="fill:#8fbc47;fill-opacity:1;stroke-width:0.0175243;stroke-linejoin:round"
       id="rect1-6-2-3-1"
       width="0.26458326"
       height="0.26528743"
       x="-47.200001"
       y="-61.784004"
       transform="matrix(0,-1,-1,0,0,0)" /><rect
       style="fill:#233c1e;fill-opacity:1;stroke-width:0.0175243;stroke-linejoin:round"
       id="rect1-6-2-3-2-9"
       width="0.26458326"
       height="0.26528743"
       x="-46.935417"
       y="-61.784004"
       transform="matrix(0,-1,-1,0,0,0)" /><rect
       style="fill:#233c1e;fill-opacity:1;stroke-width:0.0175243;stroke-linejoin:round"
       id="rect1-6-2-3-2-2-0"
       width="0.26458326"
       height="0.26528743"
       x="-47.464584"
       y="-62.314579"
       transform="matrix(0,-1,-1,0,0,0)" /><rect
       style="fill:#233c1e;fill-opacity:1;stroke-width:0.0175243;stroke-linejoin:round"
       id="rect1-6-2-3-2-9-8"
       width="0.26458326"
       height="0.26528743"
       x="-47.200001"
       y="-62.04929"
       transform="matrix(0,-1,-1,0,0,0)" /><rect
       style="fill:#233c1e;fill-opacity:1;stroke-width:0.0175243;stroke-linejoin:round"
       id="rect1-6-2-3-2-9-8-4"
       width="0.26458326"
       height="0.26528743"
       x="-46.935417"
       y="-62.04929"
       transform="matrix(0,-1,-1,0,0,0)" /><rect
       style="fill:#233c1e;fill-opacity:1;stroke-width:0.0175243;stroke-linejoin:round"
       id="rect1-6-2-3-2-9-8-4-6"
       width="0.26458326"
       height="0.26528743"
       x="-47.200001"
       y="-61.784004"
       transform="matrix(0,-1,-1,0,0,0)" /><rect
       style="fill:#233c1e;fill-opacity:1;stroke-width:0.0175243;stroke-linejoin:round"
       id="rect1-6-2-3-2-9-8-4-6-6"
       width="0.26458326"
       height="0.26528743"
       x="-46.670834"
       y="-62.314575"
       transform="matrix(0,-1,-1,0,0,0)" /><rect
       style="fill:#233c1e;fill-opacity:1;stroke-width:0.0175243;stroke-linejoin:round"
       id="rect1-6-2-3-2-9-8-4-6-6-5"
       width="0.26458326"
       height="0.26528743"
       x="-47.464584"
       y="-61.521534"
       transform="matrix(0,-1,-1,0,0,0)" /><rect
       style="fill:#233c1e;fill-opacity:1;stroke-width:0.0175243;stroke-linejoin:round"
       id="rect1-6-2-3-2-2-0-8"
       width="0.26458326"
       height="0.26528743"
       x="-46.670834"
       y="-61.518715"
       transform="matrix(0,-1,-1,0,0,0)" /></g></svg>
