<?xml version="1.0" encoding="UTF-8" standalone="no"?>
<!-- Created with Inkscape (http://www.inkscape.org/) -->

<svg
   width="32"
   height="32"
   viewBox="0 0 8.4666662 8.4666659"
   version="1.1"
   id="svg1"
   xml:space="preserve"
   inkscape:export-filename="l-mouth_closed.jpg.jpg"
   inkscape:export-xdpi="96"
   inkscape:export-ydpi="96"
   inkscape:version="1.4 (e7c3feb100, 2024-10-09)"
   sodipodi:docname="u_mouth_closed.svg"
   xmlns:inkscape="http://www.inkscape.org/namespaces/inkscape"
   xmlns:sodipodi="http://sodipodi.sourceforge.net/DTD/sodipodi-0.dtd"
   xmlns="http://www.w3.org/2000/svg"
   xmlns:svg="http://www.w3.org/2000/svg"><sodipodi:namedview
     id="namedview1"
     pagecolor="#ffffff"
     bordercolor="#000000"
     borderopacity="0.25"
     inkscape:showpageshadow="2"
     inkscape:pageopacity="0.0"
     inkscape:pagecheckerboard="0"
     inkscape:deskcolor="#d1d1d1"
     inkscape:document-units="mm"
     inkscape:zoom="9.4387179"
     inkscape:cx="33.161284"
     inkscape:cy="7.7341013"
     inkscape:window-width="1920"
     inkscape:window-height="1010"
     inkscape:window-x="0"
     inkscape:window-y="42"
     inkscape:window-maximized="1"
     inkscape:current-layer="layer1" /><defs
     id="defs1" /><g
     inkscape:label="Layer 1"
     inkscape:groupmode="layer"
     id="layer1"
     transform="translate(-61.256245,-46.40625)"><g
       id="g1"
       transform="translate(0.01129159)"><rect
         style="fill:#8fbc47;fill-opacity:1;stroke-width:0.140194;stroke-linejoin:round"
         id="rect1-6-2-3-9"
         width="2.1166646"
         height="2.122298"
         x="-48.522915"
         y="-67.600586"
         transform="matrix(0,-1,-1,0,0,0)" /><rect
         style="fill:#8fbc47;fill-opacity:1;stroke-width:0.140194;stroke-linejoin:round"
         id="rect1-6-2-3-1"
         width="2.1166646"
         height="2.122298"
         x="-50.639584"
         y="-65.478302"
         transform="matrix(0,-1,-1,0,0,0)" /><rect
         style="fill:#233c1e;fill-opacity:1;stroke-width:0.140194;stroke-linejoin:round"
         id="rect1-6-2-3-19-4"
         width="2.1166646"
         height="2.122298"
         x="-52.756248"
         y="-63.378544"
         transform="matrix(0,-1,-1,0,0,0)" /><rect
         style="fill:#233c1e;fill-opacity:1;stroke-width:0.140194;stroke-linejoin:round"
         id="rect1-6-2-3-2"
         width="2.1166646"
         height="2.122298"
         x="-54.872917"
         y="-67.600586"
         transform="matrix(0,-1,-1,0,0,0)" /><rect
         style="fill:#233c1e;fill-opacity:1;stroke-width:0.140194;stroke-linejoin:round"
         id="rect1-6-2-3-2-7"
         width="2.1166646"
         height="2.122298"
         x="-52.756248"
         y="-67.600586"
         transform="matrix(0,-1,-1,0,0,0)" /><rect
         style="fill:#233c1e;fill-opacity:1;stroke-width:0.140194;stroke-linejoin:round"
         id="rect1-6-2-3-2-6"
         width="2.1166646"
         height="2.122298"
         x="-54.872917"
         y="-65.500824"
         transform="matrix(0,-1,-1,0,0,0)" /><rect
         style="fill:#233c1e;fill-opacity:1;stroke-width:0.140194;stroke-linejoin:round"
         id="rect1-6-2-3-2-2"
         width="2.1166646"
         height="2.122298"
         x="-50.639584"
         y="-67.600586"
         transform="matrix(0,-1,-1,0,0,0)" /><rect
         style="fill:#233c1e;fill-opacity:1;stroke-width:0.140194;stroke-linejoin:round"
         id="rect1-6-2-3-2-9"
         width="2.1166646"
         height="2.122298"
         x="-48.522915"
         y="-65.478302"
         transform="matrix(0,-1,-1,0,0,0)" /><rect
         style="fill:#233c1e;fill-opacity:1;stroke-width:0.140194;stroke-linejoin:round"
         id="rect1-6-2-3-2-9-9"
         width="2.1166646"
         height="2.122298"
         x="-50.639584"
         y="-65.478302"
         transform="matrix(0,-1,-1,0,0,0)" /><rect
         style="fill:#233c1e;fill-opacity:1;stroke-width:0.140194;stroke-linejoin:round"
         id="rect1-6-2-3-19-4-7"
         width="2.1166646"
         height="2.122298"
         x="-50.639584"
         y="-65.478302"
         transform="matrix(0,-1,-1,0,0,0)" /><rect
         style="fill:#233c1e;fill-opacity:1;stroke-width:0.140194;stroke-linejoin:round"
         id="rect1-6-2-3-2-2-0"
         width="2.1166646"
         height="2.122298"
         x="-48.522915"
         y="-67.600586"
         transform="matrix(0,-1,-1,0,0,0)" /></g></g></svg>
